<mxfile host="Electron" modified="2024-04-09T06:40:17.537Z" agent="Mozilla/5.0 (Macintosh; Intel Mac OS X 10_15_7) AppleWebKit/537.36 (KHTML, like Gecko) draw.io/22.0.3 Chrome/114.0.5735.289 Electron/25.8.4 Safari/537.36" etag="9Nu-NUMH_tAk6OZrqBi6" version="22.0.3" type="device">
  <diagram name="Page-1" id="DlA_o81PhtzBPM63wzH7">
    <mxGraphModel dx="2535" dy="1225" grid="1" gridSize="10" guides="1" tooltips="1" connect="1" arrows="1" fold="1" page="0" pageScale="1" pageWidth="1169" pageHeight="827" math="0" shadow="0">
      <root>
        <mxCell id="0" />
        <mxCell id="1" parent="0" />
        <mxCell id="pUZmrlKaeUKwdqWuuNH8-3" value="Linode Server" style="points=[[0,0],[0.25,0],[0.5,0],[0.75,0],[1,0],[1,0.25],[1,0.5],[1,0.75],[1,1],[0.75,1],[0.5,1],[0.25,1],[0,1],[0,0.75],[0,0.5],[0,0.25]];outlineConnect=0;gradientColor=none;html=1;whiteSpace=wrap;fontSize=12;fontStyle=0;container=1;pointerEvents=0;collapsible=0;recursiveResize=0;shape=mxgraph.aws4.group;grIcon=mxgraph.aws4.group_on_premise;strokeColor=#5A6C86;fillColor=none;verticalAlign=top;align=left;spacingLeft=30;fontColor=#5A6C86;dashed=0;" vertex="1" parent="1">
          <mxGeometry x="100" y="15" width="590" height="465" as="geometry" />
        </mxCell>
        <mxCell id="pUZmrlKaeUKwdqWuuNH8-13" style="edgeStyle=orthogonalEdgeStyle;rounded=0;orthogonalLoop=1;jettySize=auto;html=1;exitX=0;exitY=0.75;exitDx=0;exitDy=0;entryX=1;entryY=0.75;entryDx=0;entryDy=0;" edge="1" parent="pUZmrlKaeUKwdqWuuNH8-3" source="pUZmrlKaeUKwdqWuuNH8-5" target="pUZmrlKaeUKwdqWuuNH8-8">
          <mxGeometry relative="1" as="geometry" />
        </mxCell>
        <mxCell id="pUZmrlKaeUKwdqWuuNH8-30" style="edgeStyle=orthogonalEdgeStyle;rounded=0;orthogonalLoop=1;jettySize=auto;html=1;exitX=0.75;exitY=1;exitDx=0;exitDy=0;entryX=0.5;entryY=0;entryDx=0;entryDy=0;" edge="1" parent="pUZmrlKaeUKwdqWuuNH8-3" source="pUZmrlKaeUKwdqWuuNH8-5" target="pUZmrlKaeUKwdqWuuNH8-29">
          <mxGeometry relative="1" as="geometry" />
        </mxCell>
        <mxCell id="pUZmrlKaeUKwdqWuuNH8-31" value="volume to server storage" style="edgeLabel;html=1;align=center;verticalAlign=middle;resizable=0;points=[];" vertex="1" connectable="0" parent="pUZmrlKaeUKwdqWuuNH8-30">
          <mxGeometry x="0.0089" y="3" relative="1" as="geometry">
            <mxPoint x="-65" y="14" as="offset" />
          </mxGeometry>
        </mxCell>
        <mxCell id="pUZmrlKaeUKwdqWuuNH8-5" value="mongoDB container" style="swimlane;whiteSpace=wrap;html=1;" vertex="1" parent="pUZmrlKaeUKwdqWuuNH8-3">
          <mxGeometry x="370" y="57.5" width="200" height="200" as="geometry" />
        </mxCell>
        <mxCell id="pUZmrlKaeUKwdqWuuNH8-2" value="" style="shape=datastore;whiteSpace=wrap;html=1;" vertex="1" parent="pUZmrlKaeUKwdqWuuNH8-5">
          <mxGeometry x="70" y="60" width="60" height="60" as="geometry" />
        </mxCell>
        <mxCell id="pUZmrlKaeUKwdqWuuNH8-6" value="TermSync Database" style="text;html=1;strokeColor=none;fillColor=none;align=center;verticalAlign=middle;whiteSpace=wrap;rounded=0;" vertex="1" parent="pUZmrlKaeUKwdqWuuNH8-5">
          <mxGeometry x="70" y="135" width="60" height="30" as="geometry" />
        </mxCell>
        <mxCell id="pUZmrlKaeUKwdqWuuNH8-12" style="edgeStyle=orthogonalEdgeStyle;rounded=0;orthogonalLoop=1;jettySize=auto;html=1;exitX=1;exitY=0.25;exitDx=0;exitDy=0;entryX=0;entryY=0.25;entryDx=0;entryDy=0;" edge="1" parent="pUZmrlKaeUKwdqWuuNH8-3" source="pUZmrlKaeUKwdqWuuNH8-8" target="pUZmrlKaeUKwdqWuuNH8-5">
          <mxGeometry relative="1" as="geometry" />
        </mxCell>
        <mxCell id="pUZmrlKaeUKwdqWuuNH8-8" value="python 3.11.7 container" style="swimlane;whiteSpace=wrap;html=1;" vertex="1" parent="pUZmrlKaeUKwdqWuuNH8-3">
          <mxGeometry x="40" y="57.5" width="200" height="200" as="geometry" />
        </mxCell>
        <mxCell id="pUZmrlKaeUKwdqWuuNH8-11" value="TermSync API" style="sketch=0;html=1;dashed=0;whitespace=wrap;fillColor=#2875E2;strokeColor=#ffffff;points=[[0.005,0.63,0],[0.1,0.2,0],[0.9,0.2,0],[0.5,0,0],[0.995,0.63,0],[0.72,0.99,0],[0.5,1,0],[0.28,0.99,0]];verticalLabelPosition=bottom;align=center;verticalAlign=top;shape=mxgraph.kubernetes.icon;prIcon=api" vertex="1" parent="pUZmrlKaeUKwdqWuuNH8-8">
          <mxGeometry x="75" y="76" width="50" height="48" as="geometry" />
        </mxCell>
        <mxCell id="pUZmrlKaeUKwdqWuuNH8-15" value="Two-way communication between fastapi and mongodb" style="text;html=1;strokeColor=none;fillColor=none;align=center;verticalAlign=middle;whiteSpace=wrap;rounded=0;" vertex="1" parent="pUZmrlKaeUKwdqWuuNH8-3">
          <mxGeometry x="270" y="135" width="60" height="30" as="geometry" />
        </mxCell>
        <mxCell id="pUZmrlKaeUKwdqWuuNH8-17" value="172.18.0.2" style="text;html=1;strokeColor=none;fillColor=none;align=center;verticalAlign=middle;whiteSpace=wrap;rounded=0;" vertex="1" parent="pUZmrlKaeUKwdqWuuNH8-3">
          <mxGeometry x="440" y="257.5" width="60" height="30" as="geometry" />
        </mxCell>
        <mxCell id="pUZmrlKaeUKwdqWuuNH8-18" value="172.18.0.3" style="text;html=1;strokeColor=none;fillColor=none;align=center;verticalAlign=middle;whiteSpace=wrap;rounded=0;" vertex="1" parent="pUZmrlKaeUKwdqWuuNH8-3">
          <mxGeometry x="110" y="257.5" width="60" height="30" as="geometry" />
        </mxCell>
        <mxCell id="pUZmrlKaeUKwdqWuuNH8-25" value=".log" style="whiteSpace=wrap;html=1;shape=mxgraph.basic.document" vertex="1" parent="pUZmrlKaeUKwdqWuuNH8-3">
          <mxGeometry x="160" y="365" width="65" height="72" as="geometry" />
        </mxCell>
        <mxCell id="pUZmrlKaeUKwdqWuuNH8-26" style="edgeStyle=orthogonalEdgeStyle;rounded=0;orthogonalLoop=1;jettySize=auto;html=1;exitX=0.75;exitY=1;exitDx=0;exitDy=0;entryX=0.5;entryY=0;entryDx=0;entryDy=0;entryPerimeter=0;" edge="1" parent="pUZmrlKaeUKwdqWuuNH8-3" source="pUZmrlKaeUKwdqWuuNH8-8" target="pUZmrlKaeUKwdqWuuNH8-25">
          <mxGeometry relative="1" as="geometry" />
        </mxCell>
        <mxCell id="pUZmrlKaeUKwdqWuuNH8-27" value="Volume to server storage" style="edgeLabel;html=1;align=center;verticalAlign=middle;resizable=0;points=[];" vertex="1" connectable="0" parent="pUZmrlKaeUKwdqWuuNH8-26">
          <mxGeometry x="0.006" y="-1" relative="1" as="geometry">
            <mxPoint x="-81" as="offset" />
          </mxGeometry>
        </mxCell>
        <mxCell id="pUZmrlKaeUKwdqWuuNH8-29" value="database" style="shape=datastore;whiteSpace=wrap;html=1;" vertex="1" parent="pUZmrlKaeUKwdqWuuNH8-3">
          <mxGeometry x="500" y="371" width="60" height="60" as="geometry" />
        </mxCell>
        <mxCell id="pUZmrlKaeUKwdqWuuNH8-4" value="Linode Server&lt;br&gt;&lt;span style=&quot;background-color: rgb(13, 17, 23); color: rgb(230, 237, 243); font-family: -apple-system, &amp;quot;system-ui&amp;quot;, &amp;quot;Segoe UI&amp;quot;, &amp;quot;Noto Sans&amp;quot;, Helvetica, Arial, sans-serif, &amp;quot;Apple Color Emoji&amp;quot;, &amp;quot;Segoe UI Emoji&amp;quot;; font-size: 16px; text-align: start;&quot;&gt;172.104.229.159&lt;/span&gt;" style="image;html=1;image=img/lib/clip_art/computers/Server_128x128.png" vertex="1" parent="1">
          <mxGeometry x="-50" y="132.5" width="80" height="80" as="geometry" />
        </mxCell>
        <mxCell id="pUZmrlKaeUKwdqWuuNH8-14" style="edgeStyle=orthogonalEdgeStyle;rounded=0;orthogonalLoop=1;jettySize=auto;html=1;" edge="1" parent="1" source="pUZmrlKaeUKwdqWuuNH8-8" target="pUZmrlKaeUKwdqWuuNH8-4">
          <mxGeometry relative="1" as="geometry" />
        </mxCell>
        <mxCell id="pUZmrlKaeUKwdqWuuNH8-24" style="edgeStyle=orthogonalEdgeStyle;rounded=0;orthogonalLoop=1;jettySize=auto;html=1;entryX=0;entryY=0.25;entryDx=0;entryDy=0;" edge="1" parent="1" source="pUZmrlKaeUKwdqWuuNH8-19" target="pUZmrlKaeUKwdqWuuNH8-4">
          <mxGeometry relative="1" as="geometry" />
        </mxCell>
        <mxCell id="pUZmrlKaeUKwdqWuuNH8-19" value="Client 1" style="outlineConnect=0;dashed=0;verticalLabelPosition=bottom;verticalAlign=top;align=center;html=1;shape=mxgraph.aws3.management_console;fillColor=#D2D3D3;gradientColor=none;" vertex="1" parent="1">
          <mxGeometry x="-580" y="20" width="63" height="63" as="geometry" />
        </mxCell>
        <mxCell id="pUZmrlKaeUKwdqWuuNH8-23" style="edgeStyle=orthogonalEdgeStyle;rounded=0;orthogonalLoop=1;jettySize=auto;html=1;entryX=0;entryY=0.5;entryDx=0;entryDy=0;" edge="1" parent="1" source="pUZmrlKaeUKwdqWuuNH8-20" target="pUZmrlKaeUKwdqWuuNH8-4">
          <mxGeometry relative="1" as="geometry" />
        </mxCell>
        <mxCell id="pUZmrlKaeUKwdqWuuNH8-20" value="Client 2" style="outlineConnect=0;dashed=0;verticalLabelPosition=bottom;verticalAlign=top;align=center;html=1;shape=mxgraph.aws3.management_console;fillColor=#D2D3D3;gradientColor=none;" vertex="1" parent="1">
          <mxGeometry x="-580" y="149.5" width="63" height="63" as="geometry" />
        </mxCell>
        <mxCell id="pUZmrlKaeUKwdqWuuNH8-22" style="edgeStyle=orthogonalEdgeStyle;rounded=0;orthogonalLoop=1;jettySize=auto;html=1;entryX=0;entryY=0.75;entryDx=0;entryDy=0;" edge="1" parent="1" source="pUZmrlKaeUKwdqWuuNH8-21" target="pUZmrlKaeUKwdqWuuNH8-4">
          <mxGeometry relative="1" as="geometry" />
        </mxCell>
        <mxCell id="pUZmrlKaeUKwdqWuuNH8-21" value="Client 3" style="outlineConnect=0;dashed=0;verticalLabelPosition=bottom;verticalAlign=top;align=center;html=1;shape=mxgraph.aws3.management_console;fillColor=#D2D3D3;gradientColor=none;" vertex="1" parent="1">
          <mxGeometry x="-580" y="280" width="63" height="63" as="geometry" />
        </mxCell>
      </root>
    </mxGraphModel>
  </diagram>
</mxfile>
